# xmcd
#
# Track frame offsets:
#	150
#	17835
#	34142
#	49747
#	67367
#	79960
#	97405
#	108305
#	120560
#	138205
#	152882
#	171147
#	186982
#	200690
#
# Disc length: 2894 seconds
#
# Revision: 0
# Processed by: cddbd v1.4PL0 Copyright (c) Steve Scherf et al.
# Submitted via: dBpowerAMP V4.0
#
DISCID=cf0b4c0e
DTITLE=The Counrty Chow - The Country Chow
DYEAR=1981
DGENRE=Country
TTITLE0=Kiki - U.S. Of Amerrica
TTITLE1=Mats Rådberg - The gambler
TTITLE2=Elisabeth Andreasson - Morning Train
TTITLE3=Alf Robertsson - Louise (Lucille)
TTITLE4=Kiki - 9 To 5
TTITLE5=Rankarna - Lonesome Rainin´ City
TTITLE6=Mats Rådberg/Elisabeth Andreasson - Will The Circle Be Unbroken
TTITLE7=Mats Rådberg - Some Broken Hearts Never Mend
TTITLE8=Elisabeth Andreasson - Angel Of The Morning
TTITLE9=Rankarna - Early Morning Rain
TTITLE10=Mats Rådberg/Elisabeth Andreasson - I´M The Singer You´re The Song
TTITLE11=Carina Wessman - Mister Don´t Speak Bad About My Music
TTITLE12=Bjore Håland - Catfish John
TTITLE13=Alf Robertsson - Mitt Land
EXTD=
EXTT0=
EXTT1=
EXTT2=
EXTT3=
EXTT4=
EXTT5=
EXTT6=
EXTT7=
EXTT8=
EXTT9=
EXTT10=
EXTT11=
EXTT12=
EXTT13=
PLAYORDER=
